<svg width="100%" viewBox="0 0 680 860" role="img" xmlns="http://www.w3.org/2000/svg">
<title>Claude + SAP Fiori/UI5 architecture — DEWA</title>
<desc>Layered architecture showing Developer, Claude clients, MCP servers, context files, DEWA project, and SAP deployment targets</desc>
<defs>
  <marker id="arr" viewBox="0 0 10 10" refX="8" refY="5" markerWidth="6" markerHeight="6" orient="auto-start-reverse">
    <path d="M2 1L8 5L2 9" fill="none" stroke="context-stroke" stroke-width="1.5" stroke-linecap="round" stroke-linejoin="round"/>
  </marker>
  <style>
    text { font-family: sans-serif; }
    .th  { font-size: 14px; font-weight: 500; }
    .ts  { font-size: 12px; font-weight: 400; }

    /* teal */
    .t-fill  { fill:#E1F5EE; stroke:#1D9E75; stroke-width:0.5; }
    .t-th    { fill:#085041; }
    .t-ts    { fill:#0F6E56; }
    /* purple */
    .p-fill  { fill:#EEEDFE; stroke:#7F77DD; stroke-width:0.5; }
    .p-th    { fill:#3C3489; }
    .p-ts    { fill:#534AB7; }
    /* amber */
    .a-fill  { fill:#FAEEDA; stroke:#BA7517; stroke-width:0.5; }
    .a-th    { fill:#633806; }
    .a-ts    { fill:#854F0B; }
    /* coral */
    .co-fill { fill:#FAECE7; stroke:#D85A30; stroke-width:0.5; }
    .co-th   { fill:#712B13; }
    .co-ts   { fill:#993C1D; }
    /* blue */
    .b-fill  { fill:#E6F1FB; stroke:#378ADD; stroke-width:0.5; }
    .b-th    { fill:#0C447C; }
    .b-ts    { fill:#185FA5; }
    /* green */
    .g-fill  { fill:#EAF3DE; stroke:#639922; stroke-width:0.5; }
    .g-th    { fill:#27500A; }
    .g-ts    { fill:#3B6D11; }
    /* gray */
    .gr-fill { fill:#F1EFE8; stroke:#888780; stroke-width:0.5; }
    .gr-th   { fill:#2C2C2A; }
    .gr-ts   { fill:#5F5E5A; }
    /* legend */
    .leg     { font-size: 12px; fill:#5F5E5A; }
  </style>
</defs>

<!-- ── DEVELOPER ───────────────────────── -->
<rect class="gr-fill" x="240" y="20" width="200" height="44" rx="8"/>
<text class="th gr-th" x="340" y="42" text-anchor="middle" dominant-baseline="central">Developer</text>

<text class="ts" x="340" y="84" text-anchor="middle" dominant-baseline="central" fill="#888780">choose a client</text>

<!-- fan arrows dev → clients -->
<line x1="290" y1="64" x2="90"  y2="110" stroke="#B4B2A9" stroke-width="0.5" fill="none" marker-end="url(#arr)"/>
<line x1="315" y1="64" x2="240" y2="110" stroke="#B4B2A9" stroke-width="0.5" fill="none" marker-end="url(#arr)"/>
<line x1="365" y1="64" x2="440" y2="110" stroke="#B4B2A9" stroke-width="0.5" fill="none" marker-end="url(#arr)"/>
<line x1="390" y1="64" x2="590" y2="110" stroke="#B4B2A9" stroke-width="0.5" fill="none" marker-end="url(#arr)"/>

<!-- ── CLIENTS ─────────────────────────── -->
<rect class="t-fill"  x="40"  y="110" width="140" height="60" rx="8"/>
<text class="th t-th" x="110" y="132" text-anchor="middle" dominant-baseline="central">VS Code</text>
<text class="ts t-ts" x="110" y="152" text-anchor="middle" dominant-baseline="central">Claude extension</text>

<rect class="t-fill"  x="190" y="110" width="140" height="60" rx="8"/>
<text class="th t-th" x="260" y="132" text-anchor="middle" dominant-baseline="central">Claude CLI</text>
<text class="ts t-ts" x="260" y="152" text-anchor="middle" dominant-baseline="central">Terminal / agent</text>

<rect class="a-fill"  x="340" y="110" width="150" height="60" rx="8"/>
<text class="th a-th" x="415" y="132" text-anchor="middle" dominant-baseline="central">Claude Desktop</text>
<text class="ts a-ts" x="415" y="152" text-anchor="middle" dominant-baseline="central">Needs FS MCP server</text>

<rect class="co-fill" x="500" y="110" width="140" height="60" rx="8"/>
<text class="th co-th" x="570" y="132" text-anchor="middle" dominant-baseline="central">Claude.ai</text>
<text class="ts co-ts" x="570" y="152" text-anchor="middle" dominant-baseline="central">Browser / mobile</text>

<!-- badges below clients -->
<rect x="40"  y="177" width="140" height="18" rx="4" fill="#E1F5EE" stroke="#1D9E75" stroke-width="0.5"/>
<text class="ts t-th"  x="110" y="187" text-anchor="middle" dominant-baseline="central">auto-loads CLAUDE.md</text>

<rect x="190" y="177" width="140" height="18" rx="4" fill="#E1F5EE" stroke="#1D9E75" stroke-width="0.5"/>
<text class="ts t-th"  x="260" y="187" text-anchor="middle" dominant-baseline="central">auto-loads CLAUDE.md</text>

<rect x="340" y="177" width="150" height="18" rx="4" fill="#FAEEDA" stroke="#BA7517" stroke-width="0.5"/>
<text class="ts a-th"  x="415" y="187" text-anchor="middle" dominant-baseline="central">attach files manually</text>

<rect x="500" y="177" width="140" height="18" rx="4" fill="#FAECE7" stroke="#D85A30" stroke-width="0.5"/>
<text class="ts co-th" x="570" y="187" text-anchor="middle" dominant-baseline="central">advisory only — no MCP</text>

<!-- client → MCP arrows -->
<line x1="110" y1="195" x2="110" y2="260" stroke="#1D9E75" stroke-width="1" fill="none" marker-end="url(#arr)"/>
<line x1="260" y1="195" x2="210" y2="260" stroke="#1D9E75" stroke-width="1" fill="none" marker-end="url(#arr)"/>
<line x1="415" y1="195" x2="400" y2="260" stroke="#BA7517" stroke-width="1" stroke-dasharray="5 3" fill="none" marker-end="url(#arr)"/>
<!-- Claude.ai skips MCP, goes straight to context -->
<line x1="570" y1="195" x2="570" y2="398" stroke="#D85A30" stroke-width="1" stroke-dasharray="3 4" fill="none" marker-end="url(#arr)"/>

<!-- ── MCP SERVERS ─────────────────────── -->
<!-- outer container -->
<rect class="p-fill" x="40" y="260" width="460" height="124" rx="12"/>
<text class="th p-th" x="270" y="284" text-anchor="middle" dominant-baseline="central">MCP servers</text>

<!-- SAPUI5 MCP -->
<rect class="p-fill" x="60" y="298" width="200" height="70" rx="8"/>
<text class="th p-th" x="160" y="320" text-anchor="middle" dominant-baseline="central">SAPUI5 MCP server</text>
<text class="ts p-ts" x="160" y="338" text-anchor="middle" dominant-baseline="central">create_ui5_app</text>
<text class="ts p-ts" x="160" y="354" text-anchor="middle" dominant-baseline="central">run_ui5_linter · get_api_reference</text>

<!-- SAP Fiori MCP -->
<rect class="p-fill" x="280" y="298" width="200" height="70" rx="8"/>
<text class="th p-th" x="380" y="320" text-anchor="middle" dominant-baseline="central">SAP Fiori MCP server</text>
<text class="ts p-ts" x="380" y="338" text-anchor="middle" dominant-baseline="central">annotation support</text>
<text class="ts p-ts" x="380" y="354" text-anchor="middle" dominant-baseline="central">preview · manifest check</text>

<!-- Desktop FS note — right of MCP outer box -->
<rect x="512" y="260" width="128" height="124" rx="8" fill="#FAEEDA" stroke="#BA7517" stroke-width="0.5" stroke-dasharray="5 3"/>
<text class="ts a-th" x="576" y="300" text-anchor="middle" dominant-baseline="central">Desktop:</text>
<text class="ts a-ts" x="576" y="318" text-anchor="middle" dominant-baseline="central">filesystem</text>
<text class="ts a-ts" x="576" y="336" text-anchor="middle" dominant-baseline="central">MCP server</text>
<text class="ts a-ts" x="576" y="354" text-anchor="middle" dominant-baseline="central">required to</text>
<text class="ts a-ts" x="576" y="372" text-anchor="middle" dominant-baseline="central">write files</text>

<!-- MCP → Context arrow -->
<line x1="270" y1="384" x2="270" y2="398" stroke="#534AB7" stroke-width="1" fill="none" marker-end="url(#arr)"/>

<!-- ── CONTEXT FILES ───────────────────── -->
<rect class="b-fill" x="40" y="398" width="600" height="136" rx="12"/>
<text class="th b-th" x="340" y="422" text-anchor="middle" dominant-baseline="central">Context files — loaded by Claude at session start</text>

<!-- CLAUDE.md -->
<rect class="b-fill" x="60"  y="440" width="125" height="76" rx="8"/>
<text class="th b-th" x="122" y="464" text-anchor="middle" dominant-baseline="central">CLAUDE.md</text>
<text class="ts b-ts" x="122" y="482" text-anchor="middle" dominant-baseline="central">Frontend rules</text>
<text class="ts b-ts" x="122" y="498" text-anchor="middle" dominant-baseline="central">for Claude clients</text>

<!-- AGENTS.md -->
<rect class="b-fill" x="197" y="440" width="125" height="76" rx="8"/>
<text class="th b-th" x="259" y="464" text-anchor="middle" dominant-baseline="central">AGENTS.md</text>
<text class="ts b-ts" x="259" y="482" text-anchor="middle" dominant-baseline="central">Frontend rules</text>
<text class="ts b-ts" x="259" y="498" text-anchor="middle" dominant-baseline="central">for Copilot</text>

<!-- DESIGN.md -->
<rect class="b-fill" x="334" y="440" width="125" height="76" rx="8"/>
<text class="th b-th" x="396" y="464" text-anchor="middle" dominant-baseline="central">DESIGN.md</text>
<text class="ts b-ts" x="396" y="482" text-anchor="middle" dominant-baseline="central">Color tokens</text>
<text class="ts b-ts" x="396" y="498" text-anchor="middle" dominant-baseline="central">Typography · CSS</text>

<!-- GUARDRAILS.md -->
<rect class="b-fill" x="471" y="440" width="145" height="76" rx="8"/>
<text class="th b-th" x="543" y="464" text-anchor="middle" dominant-baseline="central">GUARDRAILS.md</text>
<text class="ts b-ts" x="543" y="482" text-anchor="middle" dominant-baseline="central">Coding standards</text>
<text class="ts b-ts" x="543" y="498" text-anchor="middle" dominant-baseline="central">RAP · CAP · OData</text>

<!-- Context → Project -->
<line x1="340" y1="534" x2="340" y2="560" stroke="#185FA5" stroke-width="1" fill="none" marker-end="url(#arr)"/>

<!-- ── DEWA PROJECT ────────────────────── -->
<rect class="g-fill" x="40" y="560" width="600" height="136" rx="12"/>
<text class="th g-th" x="340" y="584" text-anchor="middle" dominant-baseline="central">DEWA SAPUI5 project</text>

<!-- Scaffold -->
<rect class="g-fill" x="60"  y="602" width="170" height="76" rx="8"/>
<text class="th g-th" x="145" y="624" text-anchor="middle" dominant-baseline="central">Scaffold</text>
<text class="ts g-ts" x="145" y="642" text-anchor="middle" dominant-baseline="central">manifest.json</text>
<text class="ts g-ts" x="145" y="658" text-anchor="middle" dominant-baseline="central">Component.ts · index.html</text>

<!-- Source -->
<rect class="g-fill" x="245" y="602" width="190" height="76" rx="8"/>
<text class="th g-th" x="340" y="624" text-anchor="middle" dominant-baseline="central">Source</text>
<text class="ts g-ts" x="340" y="642" text-anchor="middle" dominant-baseline="central">XML views · controllers</text>
<text class="ts g-ts" x="340" y="658" text-anchor="middle" dominant-baseline="central">i18n_en · i18n_ar · css</text>

<!-- Build & Deploy -->
<rect class="g-fill" x="450" y="602" width="170" height="76" rx="8"/>
<text class="th g-th" x="535" y="620" text-anchor="middle" dominant-baseline="central">Build &amp; deploy</text>
<text class="ts g-ts" x="535" y="638" text-anchor="middle" dominant-baseline="central">ui5 build</text>
<text class="ts g-ts" x="535" y="654" text-anchor="middle" dominant-baseline="central">BSP upload / BTP</text>
<text class="ts g-ts" x="535" y="670" text-anchor="middle" dominant-baseline="central">linter validation</text>

<!-- Project → 3 targets -->
<line x1="155" y1="696" x2="120" y2="730" stroke="#3B6D11" stroke-width="1" fill="none" marker-end="url(#arr)"/>
<line x1="340" y1="696" x2="340" y2="730" stroke="#3B6D11" stroke-width="1" fill="none" marker-end="url(#arr)"/>
<line x1="525" y1="696" x2="560" y2="730" stroke="#3B6D11" stroke-width="1" fill="none" marker-end="url(#arr)"/>

<!-- ── SAP TARGETS ─────────────────────── -->
<rect class="gr-fill" x="40"  y="730" width="180" height="60" rx="8"/>
<text class="th gr-th" x="130" y="752" text-anchor="middle" dominant-baseline="central">S/4HANA On-Prem</text>
<text class="ts gr-ts" x="130" y="770" text-anchor="middle" dominant-baseline="central">ABAP BSP · FLP</text>

<rect class="gr-fill" x="250" y="730" width="180" height="60" rx="8"/>
<text class="th gr-th" x="340" y="752" text-anchor="middle" dominant-baseline="central">SAP Build Work Zone</text>
<text class="ts gr-ts" x="340" y="770" text-anchor="middle" dominant-baseline="central">BTP portal · CDM</text>

<rect class="gr-fill" x="460" y="730" width="180" height="60" rx="8"/>
<text class="th gr-th" x="550" y="752" text-anchor="middle" dominant-baseline="central">S/4HANA Cloud</text>
<text class="ts gr-ts" x="550" y="770" text-anchor="middle" dominant-baseline="central">ABAP Cloud · BTP</text>

<!-- ── LEGEND ──────────────────────────── -->
<rect x="40"  y="810" width="10" height="10" rx="2" fill="#1D9E75"/>
<text class="leg" x="56"  y="820">Full MCP access</text>
<rect x="175" y="810" width="10" height="10" rx="2" fill="#BA7517"/>
<text class="leg" x="191" y="820">Needs FS MCP server</text>
<rect x="345" y="810" width="10" height="10" rx="2" fill="#D85A30"/>
<text class="leg" x="361" y="820">Advisory only</text>
<rect x="458" y="810" width="10" height="10" rx="2" fill="#7F77DD"/>
<text class="leg" x="474" y="820">MCP servers</text>
<rect x="562" y="810" width="10" height="10" rx="2" fill="#378ADD"/>
<text class="leg" x="578" y="820">Context files</text>

</svg>
